# xmcd
# Track frame offsets:
# 150
# 15559
# 33562
# 53538
# 73279
# 91496
# 109423
# 125100
# 137828
# 152503
# 172221
# 191054
# 211601
# 228165
# 247032
#
# Disc length: 3533 seconds
# Revision: 0
# Processed by: cddbd v1.5.1PL0 Copyright (c) Steve Scherf et al.
# Submitted via: VisiTrax 2.9.10.228 - For more info visit www.synapsa.com
#
DISCID=d70dcb0f
DTITLE=Jackson, Alan - CB90004
DYEAR=1900
DGENRE=Karaoke
TTITLE0=Summertime Blues
TTITLE1=Livin' On Love
TTITLE2=Gone Country
TTITLE3=Song For The Life
TTITLE4=I Don't Even Know Your Name
TTITLE5=I'll Try
TTITLE6=Home
TTITLE7=Little Bitty
TTITLE8=Everything I Love
TTITLE9=Who's Cheatin' Who
TTITLE10=There Goes
TTITLE11=Between The Devil And Me
TTITLE12=House With No Curtains, A
TTITLE13=I'll Go On Loving You
TTITLE14=Right On The Money
EXTD=
EXTT0=
EXTT1=
EXTT2=
EXTT3=
EXTT4=
EXTT5=
EXTT6=
EXTT7=
EXTT8=
EXTT9=
EXTT10=
EXTT11=
EXTT12=
EXTT13=
EXTT14=
PLAYORDER=
